PathFileType	4	(X/Y/Z)	Subject_003_static.trc	
DataRate	CameraRate	NumFrames	NumMarkers	Units	OrigDataRate	OrigDataStartFrame	OrigNumFrames	
100.00	100.00	6	24	mm	100.00	106	140	
Frame#	Time	LASI			RASI			LPSI			RPSI			LTHI			LKNE			LMKNE			LTIB			LANK			LHEE			LTOE			RTHI			RKNE			RMKNE			RTIB			RANK			RHEE			RTOE			LFEO			LFEP			LTIO			RFEO			RFEP			RTIO			
		X1	Y1	Z1	X2	Y2	Z2	X3	Y3	Z3	X4	Y4	Z4	X5	Y5	Z5	X6	Y6	Z6	X7	Y7	Z7	X8	Y8	Z8	X9	Y9	Z9	X10	Y10	Z10	X11	Y11	Z11	X12	Y12	Z12	X13	Y13	Z13	X14	Y14	Z14	X15	Y15	Z15	X16	Y16	Z16	X17	Y17	Z17	X18	Y18	Z18	X19	Y19	Z19	X20	Y20	Z20	X21	Y21	Z21	X22	Y22	Z22	X23	Y23	Z23	X24	Y24	Z24	

106	1.050	-845.31567	595.69751	14.68665	-783.84180	584.33954	182.43419	-933.21399	633.98816	110.60516	-909.40057	627.53406	166.10812	-912.55371	392.63388	-26.25519	-892.04938	304.45114	30.41661	-871.96362	301.72888	126.69888	-883.17059	146.96613	-17.15356	-881.74451	48.32750	39.34069	-931.08838	35.54826	64.70644	-787.35516	34.25344	75.44417	-808.25305	390.82587	271.25772	-827.41278	295.68207	237.38678	-873.91003	276.35577	146.72311	-882.04614	177.30740	336.46399	-965.37598	119.00124	347.67789	-1005.56299	158.77040	336.00461	-984.47559	28.37983	332.60187	-877.28235	308.96335	73.74758	-887.82379	552.75085	51.95362	-880.31573	48.01196	71.30723	-845.74750	292.85855	194.74739	-841.24158	544.28845	176.16042	-988.13184	120.35852	324.51364 
107	1.060	-845.45728	595.65918	14.70195	-784.02765	584.30090	182.45273	-933.34381	633.98828	110.59278	-909.56201	627.54395	166.10056	-912.65912	392.66168	-26.18245	-891.98523	304.43381	30.41829	-871.91779	301.72321	126.67992	-883.17072	146.93953	-17.15446	-881.73126	48.28625	39.35779	-931.10162	35.54705	64.72416	-787.39069	34.21923	75.45132	-808.35114	390.82440	271.34595	-827.40314	295.70593	237.48268	-873.86304	276.34860	146.79448	-881.99042	177.37657	336.48019	-965.36755	119.00000	347.68326	-1005.60107	158.77936	336.00726	-984.49939	28.36122	332.58224	-877.15680	308.95996	73.72683	-887.99219	552.73474	51.96008	-880.27704	47.97447	71.32321	-845.71283	292.85242	194.83456	-841.43958	544.27112	176.17793	-988.11121	120.35249	324.50677 
108	1.070	-845.57648	595.65582	14.73682	-784.18347	584.30011	182.49142	-933.46649	634.00653	110.58601	-909.71777	627.57025	166.16168	-912.78937	392.76999	-26.07967	-891.89075	304.44870	30.35267	-871.86090	301.72266	126.62489	-883.20264	146.96313	-17.17095	-881.76105	48.30835	39.31353	-931.13153	35.56171	64.67468	-787.41595	34.23938	75.42451	-808.47772	390.92621	271.46027	-827.42889	295.73898	237.59213	-873.74249	276.37021	146.80115	-882.04034	177.44095	336.56879	-965.45972	118.98172	347.70410	-1005.60046	158.74959	335.97729	-984.49762	28.36724	332.61612	-876.95398	308.97437	73.62403	-888.12781	552.74243	51.98612	-880.26447	48.00191	71.27705	-845.69513	292.86087	194.92699	-841.60010	544.28015	176.21333	-988.17615	120.31481	324.49988 
109	1.080	-845.70306	595.63721	14.80007	-784.33612	584.34906	182.55479	-933.59070	634.04327	110.63538	-909.83423	627.55945	166.19408	-912.72931	392.89249	-26.08592	-891.80640	304.46008	30.35709	-871.54150	301.59180	126.55043	-883.18237	146.96461	-17.16255	-881.78369	48.33237	39.34959	-931.14752	35.52917	64.72247	-787.43689	34.26171	75.44654	-808.57666	391.02844	271.63409	-827.40240	295.79376	237.83333	-873.44489	276.23911	146.95583	-882.09576	177.57661	336.74078	-965.52118	119.01685	347.77563	-1005.61566	158.72614	336.01227	-984.47418	28.36717	332.63522	-876.91272	308.98734	73.64314	-888.25861	552.73499	52.05352	-880.29626	48.02774	71.31355	-845.63007	292.87335	195.15457	-841.74683	544.32220	176.29007	-988.19354	120.31772	324.52655 
110	1.090	-845.81488	595.61389	14.78322	-784.50604	584.34406	182.60742	-933.72614	634.05200	110.57449	-909.93854	627.56702	166.19125	-912.79724	392.77176	-26.08189	-891.69360	304.44260	30.28379	-871.44238	301.60074	126.46202	-883.20636	146.98564	-17.23137	-881.79254	48.37437	39.26147	-931.15289	35.56705	64.62901	-787.44409	34.33353	75.35777	-808.69208	391.21033	271.87891	-827.42938	295.91458	238.06912	-873.26508	276.26480	147.05827	-882.14386	177.66666	336.89731	-965.58826	119.03446	347.81125	-1005.62335	158.71083	335.95172	-984.44794	28.38707	332.66779	-876.73596	308.97345	73.54741	-888.38818	552.72766	52.04833	-880.26569	48.06903	71.22356	-845.61066	292.94232	195.37421	-841.93066	544.33020	176.30618	-988.22913	120.32150	324.53070 
111	1.100	-845.86755	595.59283	14.81970	-784.72540	584.28015	182.69438	-933.83429	634.02716	110.62740	-910.07916	627.56305	166.24118	-912.77313	392.71866	-26.03622	-891.60919	304.40332	30.32490	-871.21155	301.54126	126.50780	-883.18024	146.98035	-17.21625	-881.79211	48.36693	39.26961	-931.11121	35.51814	64.67850	-787.41412	34.31816	75.38255	-808.91162	391.24094	272.22873	-827.40533	296.01163	238.42667	-872.90607	276.21408	147.26489	-882.22882	177.72691	337.12964	-965.55707	119.01384	347.89655	-1005.63287	158.67238	336.00513	-984.42816	28.34747	332.63687	-876.65442	308.95459	73.58737	-888.49353	552.71814	52.03563	-880.26318	48.05717	71.23157	-845.46088	292.95862	195.68411	-842.15765	544.28821	176.33676	-988.14191	120.25768	324.55920 
